<?xml version="1.0" standalone="no"?>
<!DOCTYPE svg PUBLIC "-//W3C//DTD SVG 20010904//EN"
 "http://www.w3.org/TR/2001/REC-SVG-20010904/DTD/svg10.dtd">
<svg version="1.0" xmlns="http://www.w3.org/2000/svg"
 width="1159.000000pt" height="1159.000000pt" viewBox="0 0 1159.000000 1159.000000"
 preserveAspectRatio="xMidYMid meet">
<metadata>
Created by potrace 1.14, written by Peter Selinger 2001-2017
</metadata>
<g transform="translate(0.000000,1159.000000) scale(0.100000,-0.100000)"
fill="#000000" stroke="none">
<path d="M5367 11584 c-3 -3 -31 -7 -63 -9 -79 -4 -231 -20 -284 -29 -14 -3
-47 -7 -75 -11 -27 -3 -75 -10 -105 -15 -30 -6 -68 -12 -85 -15 -16 -3 -41 -8
-55 -10 -14 -3 -36 -8 -50 -10 -35 -7 -57 -12 -115 -25 -27 -6 -61 -14 -75
-16 -14 -3 -32 -7 -40 -11 -8 -3 -24 -7 -35 -9 -46 -8 -55 -10 -61 -16 -3 -4
-12 -4 -19 -2 -7 3 -16 1 -20 -5 -3 -6 -14 -11 -24 -11 -10 0 -47 -9 -82 -21
-35 -11 -72 -21 -81 -22 -10 -1 -18 -6 -18 -11 0 -5 -3 -7 -6 -3 -6 6 -238
-70 -301 -99 -17 -8 -36 -14 -42 -14 -6 0 -25 -7 -43 -15 -18 -8 -76 -32 -128
-54 -126 -52 -226 -99 -390 -181 -176 -88 -204 -103 -208 -112 -2 -5 -8 -8
-13 -8 -5 0 -39 -18 -75 -40 -36 -22 -70 -40 -75 -40 -5 0 -9 -4 -9 -10 0 -5
-5 -10 -11 -10 -9 0 -208 -124 -244 -153 -5 -4 -62 -44 -125 -89 -63 -44 -117
-84 -120 -87 -3 -4 -21 -18 -40 -31 -32 -23 -233 -188 -304 -250 -153 -134
-442 -426 -534 -541 -15 -18 -43 -51 -63 -74 -20 -22 -64 -76 -99 -120 -34
-44 -66 -81 -71 -83 -5 -2 -9 -8 -9 -13 0 -4 -26 -43 -58 -86 -33 -43 -93
-130 -135 -193 -42 -63 -81 -120 -87 -127 -5 -7 -10 -17 -10 -23 0 -5 -4 -10
-10 -10 -5 0 -10 -4 -10 -10 0 -5 -29 -57 -64 -115 -36 -58 -62 -105 -60 -105
3 0 -4 -12 -15 -26 -12 -15 -21 -33 -21 -40 0 -8 -4 -14 -9 -14 -5 0 -12 -12
-16 -27 -3 -15 -10 -30 -15 -33 -10 -7 -125 -243 -122 -252 1 -5 -3 -8 -8 -8
-6 0 -10 -9 -10 -19 0 -11 -4 -22 -8 -25 -5 -3 -21 -38 -37 -78 -16 -40 -32
-77 -36 -83 -25 -35 -175 -460 -224 -635 -36 -129 -83 -311 -89 -345 -2 -16
-11 -61 -20 -100 -8 -38 -17 -86 -20 -105 -3 -19 -8 -46 -10 -60 -8 -41 -28
-163 -31 -190 -2 -14 -8 -63 -14 -110 -23 -191 -26 -264 -26 -705 0 -409 4
-522 20 -630 3 -16 7 -50 10 -75 8 -75 16 -128 41 -275 23 -137 28 -165 39
-215 3 -14 7 -34 9 -45 7 -34 76 -308 86 -340 6 -16 26 -84 46 -150 20 -66 41
-126 47 -132 5 -7 7 -13 4 -13 -7 0 37 -124 53 -152 6 -10 10 -24 10 -31 0 -8
6 -27 14 -43 8 -16 30 -67 49 -114 68 -166 254 -552 270 -558 4 -2 7 -8 7 -13
0 -4 20 -43 45 -85 25 -41 45 -78 45 -80 0 -3 11 -20 25 -38 14 -18 25 -36 25
-40 0 -4 8 -19 19 -34 10 -15 60 -90 111 -167 51 -77 96 -142 99 -145 4 -3 18
-21 31 -40 14 -19 28 -39 32 -45 4 -5 27 -35 50 -65 23 -30 46 -59 50 -65 79
-99 122 -151 127 -155 3 -3 33 -36 66 -75 74 -86 74 -86 216 -231 95 -97 192
-190 313 -299 78 -71 377 -308 446 -355 13 -8 50 -35 84 -59 33 -25 70 -50 81
-56 23 -12 137 -87 145 -95 3 -3 23 -14 44 -25 22 -11 45 -24 51 -30 6 -5 20
-15 30 -21 11 -6 47 -26 80 -44 128 -72 222 -122 277 -147 32 -14 58 -29 58
-33 0 -4 6 -7 13 -7 6 0 53 -19 102 -42 134 -63 140 -66 270 -116 66 -26 129
-50 140 -55 35 -14 90 -35 95 -36 3 0 12 -3 20 -6 34 -13 56 -20 80 -24 13 -3
29 -9 35 -14 6 -5 25 -11 42 -15 18 -3 45 -10 60 -16 15 -6 53 -18 83 -26 30
-8 80 -21 110 -29 30 -9 64 -17 75 -20 27 -5 53 -12 100 -24 22 -5 56 -13 75
-16 19 -3 51 -9 70 -14 19 -5 51 -11 70 -14 19 -2 42 -7 50 -10 8 -2 33 -7 55
-10 22 -3 49 -7 60 -9 19 -4 144 -21 235 -32 25 -3 59 -8 75 -10 128 -16 253
-20 615 -19 371 0 507 4 620 18 19 3 60 8 90 12 30 4 66 8 80 9 14 2 25 4 25
5 0 1 20 3 45 5 25 2 56 7 70 11 27 6 45 10 102 18 21 3 57 10 80 15 24 6 59
13 78 16 19 3 50 10 68 15 17 4 32 6 32 3 0 -3 7 0 15 7 8 7 15 10 15 7 0 -3
51 8 113 25 61 16 122 31 134 34 12 2 35 9 50 15 16 6 38 13 50 15 32 6 293
93 330 110 17 8 37 14 45 14 8 0 18 4 23 8 8 7 94 42 115 48 4 1 21 8 105 43
63 27 113 50 230 106 72 34 134 62 139 63 5 0 12 4 15 9 3 5 40 26 81 48 41
21 125 68 185 104 61 36 114 68 119 70 63 27 623 431 666 480 3 4 34 31 70 61
255 218 537 511 762 795 145 183 398 547 398 573 0 6 3 12 8 14 24 10 275 487
352 668 17 41 40 93 50 115 94 211 256 717 294 920 1 6 5 16 9 23 5 6 6 12 4
12 -2 0 2 26 10 58 7 31 16 71 18 87 2 17 7 44 10 60 4 17 8 41 10 55 2 14 4
26 6 28 1 1 3 11 4 22 1 11 3 21 4 23 1 1 4 20 6 42 2 22 6 53 9 69 3 16 8 48
10 70 3 23 8 61 11 86 7 49 12 97 22 205 9 101 9 856 0 945 -16 152 -18 166
-23 200 -2 19 -7 55 -9 80 -5 55 -14 116 -21 150 -8 44 -17 104 -18 130 -1 14
-4 27 -8 30 -3 3 -9 23 -11 45 -2 22 -7 47 -11 56 -4 9 -6 20 -5 25 1 5 -1 16
-4 24 -5 13 -19 73 -32 145 -2 11 -4 22 -6 25 -1 3 -3 10 -4 15 -1 6 -5 17 -8
25 -3 8 -7 26 -10 40 -3 14 -21 81 -42 150 -20 69 -38 130 -39 135 -5 24 -39
123 -52 152 -8 17 -14 36 -14 42 0 6 -6 25 -14 43 -8 18 -36 87 -61 153 -104
266 -244 553 -398 815 -59 101 -287 443 -319 482 -13 14 -30 36 -38 48 -21 30
-93 125 -111 144 -8 8 -25 30 -39 47 -180 229 -526 578 -770 778 -14 11 -31
26 -38 32 -84 71 -315 244 -407 304 -33 22 -62 42 -65 45 -46 50 -731 430
-775 430 -8 0 -15 3 -17 8 -4 9 -350 156 -393 167 -5 1 -17 5 -25 8 -17 7
-245 88 -245 86 0 0 -7 2 -15 5 -31 11 -130 37 -156 42 -15 3 -32 8 -38 12 -6
3 -15 7 -21 9 -35 7 -55 12 -90 22 -22 6 -43 11 -47 12 -4 0 -34 7 -66 14 -33
8 -71 16 -85 19 -15 2 -31 7 -36 10 -5 3 -26 8 -47 11 -22 2 -73 11 -114 19
-95 18 -123 23 -185 31 -95 11 -110 13 -140 19 -16 3 -59 8 -95 11 -36 3 -81
8 -100 11 -45 8 -936 15 -943 8z"/>
</g>
</svg>
